<svg width="206" height="206" viewBox="0 0 206 206" fill="none" xmlns="http://www.w3.org/2000/svg">
<path d="M203 103C203 115.866 186.684 131.43 164.867 128.618C182.275 142.061 182.81 164.609 173.715 173.705C164.619 182.8 142.071 182.265 128.628 164.856C131.43 186.673 115.866 202.99 103 202.99C90.1343 202.99 74.5699 186.673 77.3717 164.856C63.9291 182.265 41.3807 182.8 32.2851 173.705C23.1895 164.609 23.7252 142.061 41.1335 128.618C19.3164 131.42 3 115.855 3 102.99C3 90.124 19.3164 74.5595 41.1335 77.3717C23.7252 63.9291 23.1895 41.3807 32.2851 32.2851C41.3807 23.1895 63.9291 23.7252 77.3717 41.1335C74.5699 19.3164 90.1343 3 102.99 3C115.855 3 131.42 19.3164 128.618 41.1335C142.061 23.7252 164.609 23.1895 173.705 32.2851C182.8 41.3807 182.265 63.9291 164.856 77.3717C186.673 74.5698 202.99 90.1343 202.99 103H203Z" stroke="#96CADE" stroke-width="6" stroke-miterlimit="10"/>
</svg>
