<svg width="246" height="246" viewBox="0 0 246 246" fill="none" xmlns="http://www.w3.org/2000/svg">
<path id="Vector" d="M243 123.006C243 138.446 223.42 157.124 197.24 153.749C218.13 169.881 218.773 196.941 207.858 207.856C196.943 218.771 169.885 218.129 153.754 197.237C157.116 223.419 138.439 243 123 243C107.561 243 88.8838 223.419 92.246 197.237C76.115 218.129 49.0569 218.771 38.1422 207.856C27.2274 196.941 27.8702 169.881 48.7602 153.749C22.5797 157.112 3 138.433 3 122.994C3 107.554 22.5797 88.8759 48.7602 92.2506C27.8702 76.1187 27.2274 49.0592 38.1422 38.144C49.0569 27.2287 76.115 27.8715 92.246 48.7626C88.8838 22.5807 107.561 3 122.988 3C138.426 3 157.104 22.5807 153.742 48.7626C169.873 27.8715 196.931 27.2287 207.845 38.144C218.76 49.0592 218.117 76.1187 197.227 92.2506C223.408 88.8882 242.988 107.567 242.988 123.006H243Z" stroke="white" stroke-width="6" stroke-miterlimit="10"/>
</svg>
