<svg width="127" height="40" viewBox="0 0 127 40" fill="none" xmlns="http://www.w3.org/2000/svg">
<path d="M100.143 39.192C99.0554 39.192 97.9778 39.0712 96.9051 38.8296C95.5956 38.5348 93.1602 37.9791 91.034 36.0366C88.7291 33.9346 88.3231 31.5958 87.9317 29.3343C87.5887 27.3435 87.2311 25.2898 85.5011 23.0573C84.7715 22.1102 83.1672 20.3561 80.6641 19.2206C79.171 18.5441 77.7407 18.2445 76.5181 18.1382C76.3248 18.1382 76.1315 18.1382 75.9383 18.1382C76.0059 21.3902 76.0736 24.908 76.1412 28.769L73.2419 28.8221C73.1404 22.9027 73.0341 17.7902 72.9278 13.1948V13.1417C72.8312 9.10198 72.7635 6.17851 74.9525 3.77692C76.982 1.55411 80.3645 0.539354 83.5634 1.1917C84.1433 1.3125 89.2751 2.49156 90.6039 7.33823C91.4737 10.513 90.3188 14.1226 87.7964 16.1086C86.7044 16.9688 85.4432 17.3215 83.7036 17.5728C85.7379 18.8582 87.0958 20.3755 87.7964 21.2839C89.9613 24.0817 90.401 26.609 90.7876 28.8366C91.1403 30.8565 91.4157 32.4559 92.991 33.8911C94.5518 35.3166 96.4267 35.7418 97.5478 35.9979C100.032 36.5584 102.602 36.3023 105.202 35.2344C106.574 34.6691 109.991 32.9343 111.996 29.0879C112.412 28.2857 113.17 26.8313 113.566 25.0965C112.856 26.0533 112.059 26.7926 111.179 27.3145C106.99 29.7789 102.312 27.4594 102.119 27.358C99.3695 25.9663 95.6487 22.3373 96.678 18.056C97.7701 13.5186 103.308 12.3927 103.936 12.2816C107.502 11.6389 111.368 13.074 113.9 15.7897C114.402 11.2958 113.146 7.38172 111.001 6.16401C109.72 5.43919 107.691 5.24107 105.424 5.62281C104.197 5.83059 103.023 6.25099 101.921 6.87434L100.491 4.35195C101.887 3.55947 103.38 3.02793 104.941 2.76216C107.893 2.25961 110.556 2.5737 112.431 3.64161C117.147 6.32348 117.563 13.707 116.108 19.38C117.838 24.1494 115.412 28.7931 114.562 30.4312C112.117 35.1233 107.971 37.2301 106.304 37.9211C104.24 38.7716 102.182 39.1968 100.143 39.1968V39.192ZM105.69 15.0262C105.27 15.0262 104.854 15.0601 104.443 15.1374C104.4 15.147 100.162 15.9395 99.4903 18.7374C98.8911 21.2259 101.433 23.7628 103.424 24.7776C103.458 24.7969 106.879 26.4833 109.701 24.8211C110.976 24.0672 111.861 22.5258 112.378 21.3612C112.639 20.7814 112.861 20.1967 113.054 19.612C112.996 19.496 112.933 19.3752 112.866 19.2592C111.402 16.6788 108.522 15.0311 105.685 15.0311L105.69 15.0262ZM75.8706 15.2002C76.1074 15.2099 76.3538 15.2195 76.6099 15.2389C78.0209 15.2147 79.4416 15.1325 80.8478 14.9827C83.7954 14.6783 85.1339 14.514 85.9989 13.8327C87.3809 12.7454 88.4439 10.426 87.8061 8.10655C86.9218 4.87382 83.143 4.06685 82.9836 4.03785C80.7946 3.58846 78.4317 4.27463 77.0931 5.73395C75.745 7.2126 75.7305 9.15997 75.8223 13.074V13.1272C75.8416 13.8085 75.8561 14.4947 75.8706 15.2002Z" fill="white"/>
<path d="M126.116 24.9081C125.642 24.4684 125.101 24.2316 124.425 24.2316C123.748 24.2316 123.207 24.4684 122.733 24.9081C122.26 25.3817 122.023 25.9567 122.023 26.5994C122.023 27.2759 122.26 27.8509 122.733 28.3245C123.207 28.7642 123.782 29.0348 124.425 29.0348C125.101 29.0348 125.642 28.7642 126.116 28.3245C126.589 27.8509 126.792 27.2759 126.792 26.5994C126.792 25.9229 126.589 25.3817 126.116 24.9081Z" fill="white"/>
<path d="M28.9984 31.9679C27.6647 31.9679 26.2972 31.5378 25.2873 30.5279C23.5477 28.798 23.3496 25.5556 24.8621 23.5937C26.3939 21.6077 29.2352 21.4917 31.603 21.7768C31.5885 21.3854 31.5788 20.9843 31.5643 20.5688C31.5305 19.5927 31.4967 18.5393 31.4725 17.4037C31.3662 12.5329 31.5015 7.52188 31.8736 2.51091L34.7632 2.72836C34.396 7.64752 34.2655 12.5618 34.367 17.3409C34.3911 18.4619 34.425 19.5057 34.4588 20.4721C34.4829 21.1196 34.5023 21.7382 34.5168 22.3229C37.2083 22.9365 38.8222 23.8547 40.2477 24.6616C41.7119 25.4928 42.9779 26.2128 45.3119 26.4882C49.0423 26.9328 50.1489 26.2031 50.4726 25.7295C50.8012 25.2512 50.8495 24.0431 50.9172 22.2166C50.9945 20.1242 51.1201 18.718 51.1491 18.4378C51.1491 18.375 51.1491 18.3073 51.154 18.2445C50.5693 18.2687 49.9846 18.3218 49.3999 18.404L48.9988 15.5336C49.7526 15.4273 50.5065 15.3645 51.2554 15.3404C51.3618 12.644 51.4826 11.0204 51.8015 9.8075C52.2267 8.20322 53.5121 3.31305 57.3972 2.1195C59.8906 1.35602 62.4033 2.25964 63.9303 3.35654C65.9984 4.84485 67.4191 7.7345 68.1198 17.51C68.3855 21.2211 68.4725 25.024 68.3807 28.8076L65.4862 28.8801C65.3847 27.4836 64.9112 24.8018 62.9107 22.5113C61.2484 20.6123 59.3204 19.8633 57.9094 19.3172C56.682 18.8437 55.387 18.5199 54.0533 18.3556C54.0533 18.4281 54.0533 18.5006 54.0484 18.5731V18.6697C54.0484 18.6697 53.8986 20.1242 53.8165 22.3229C53.7247 24.8211 53.6715 26.1983 52.8646 27.3725C50.9945 30.0785 46.6214 29.5566 44.9736 29.3633C42.0598 29.0154 40.412 28.0828 38.8222 27.1792C37.5852 26.4785 36.411 25.8117 34.5313 25.3091C34.425 28.0635 33.8886 29.9335 32.1345 31.0884C31.2889 31.6441 30.163 31.9679 29.0081 31.9679H28.9984ZM29.7087 24.5553C28.6167 24.5553 27.6309 24.7534 27.1574 25.3623C26.5823 26.1065 26.5485 27.6914 27.3313 28.4694C28.1141 29.2474 29.6942 29.2135 30.5302 28.6578C31.342 28.1263 31.5981 26.7588 31.6368 24.71C31.0086 24.6181 30.3369 24.5505 29.7039 24.5505L29.7087 24.5553ZM54.1499 15.4515C55.8122 15.6351 57.4261 16.0265 58.9531 16.6161C60.4511 17.1959 62.959 18.1672 65.09 20.6026C65.1963 20.7282 65.3074 20.8539 65.4089 20.9843C65.3606 19.8923 65.3026 18.8002 65.2253 17.7178C64.4811 7.3286 62.9058 6.19303 62.2342 5.70498C61.2484 4.99465 59.6344 4.46794 58.2476 4.88834C55.9088 5.60834 54.9279 9.31945 54.609 10.542C54.3577 11.4939 54.2466 13.0161 54.1548 15.4467L54.1499 15.4515Z" fill="white"/>
<path d="M11.3562 30.0448C8.16697 30.0448 5.58176 28.1844 4.9874 27.7253C0.348504 24.106 0.691588 17.7324 0.841386 15.0119C1.2038 8.29029 3.34446 3.89784 7.20054 1.94564C8.34577 1.36578 12.371 -0.339983 16.1594 2.00846C19.8029 4.26509 20.2088 8.44976 20.2523 9.26639L17.3578 9.42102C17.3385 9.07794 17.1017 6.00467 14.6324 4.47287C12.0665 2.88308 9.08026 4.24576 8.51006 4.53569C4.19492 6.715 3.847 13.079 3.73586 15.1665C3.60056 17.6261 3.32513 22.7482 6.77047 25.4349C7.10389 25.6958 10.1143 27.9379 13.0958 26.8362C15.565 25.9181 16.5798 23.2991 16.7586 22.7868C16.9905 22.1152 17.1162 21.4097 17.1258 20.6848L20.0251 20.738C20.0058 21.7673 19.827 22.7772 19.4984 23.7388C19.1409 24.768 17.7009 28.223 14.1057 29.5567C13.1635 29.9046 12.2405 30.0496 11.361 30.0496L11.3562 30.0448Z" fill="white"/>
</svg>
