<svg width="226" height="226" viewBox="0 0 226 226" fill="none" xmlns="http://www.w3.org/2000/svg">
<rect width="226" height="226" fill="#007CC6"/>
<path d="M213 113C213 125.866 196.684 141.43 174.867 138.618C192.275 152.061 192.81 174.609 183.715 183.705C174.619 192.8 152.071 192.265 138.628 174.856C141.43 196.673 125.866 212.99 113 212.99C100.134 212.99 84.5699 196.673 87.3717 174.856C73.9291 192.265 51.3807 192.8 42.2851 183.705C33.1895 174.609 33.7252 152.061 51.1335 138.618C29.3164 141.42 13 125.855 13 112.99C13 100.124 29.3164 84.5595 51.1335 87.3717C33.7252 73.9291 33.1895 51.3807 42.2851 42.2851C51.3807 33.1895 73.9291 33.7252 87.3717 51.1335C84.5699 29.3164 100.134 13 112.99 13C125.855 13 141.42 29.3164 138.618 51.1335C152.061 33.7252 174.609 33.1895 183.705 42.2851C192.8 51.3807 192.265 73.9291 174.856 87.3717C196.673 84.5698 212.99 100.134 212.99 113H213Z" stroke="white" stroke-width="6" stroke-miterlimit="10"/>
</svg>
